<?xml version="1.0" encoding="UTF-8"?>
<svg id="Layer_1" data-name="Layer 1" xmlns="http://www.w3.org/2000/svg" viewBox="0 0 1133.86 351.36">
  <defs>
    <style>
      .cls-1 {
        fill: #d3bca1;
      }

      .cls-2 {
        fill: #3c2113;
      }
    </style>
  </defs>
  <g>
    <g>
      <path class="cls-1" d="M75.65,63.47c-.16.01-.29.12-.4.23-1.22,1.09-2.38,2.24-3.41,3.03,2.51,1.53,5.07,3.01,7.77,4.19,2.7,1.19,5.54,2.08,8.46,2.42-4.25-2.81-8.24-6.03-11.89-9.58-.15-.14-.32-.3-.53-.28Z"/>
      <path class="cls-1" d="M69.88,69.71c-.47.27-.8.72-1.11,1.15-.6.83-1.2,1.66-1.88,2.58,1.44-.39,2.99-.23,4.36.36,0,0,0,0,0,0,0,0,.02,0,.03,0,.97.42,1.84,1.05,2.5,1.88,1.37,1.73,1.83,4.1,3.39,5.67,1.59,1.61,4.03,2.06,6.29,2.08-2.24-2.61-4.27-5.4-6.06-8.33-.69-1.13-1.35-2.28-2.2-3.29-.85-1.01-1.93-1.88-3.2-2.24-.7-.2-1.49-.24-2.12.12Z"/>
      <path class="cls-1" d="M96.77,52.07c-.52-.12-1.06.05-1.56.21-1.04.33-2.07.66-3.11.99-1.67.53-3.33,1.06-4.95,1.72-1.06.43-2.11.93-3.21,2.22.64-.36,1.46-.31,2.13.01.66.32,1.19.87,1.63,1.46,1.08,1.47,1.67,3.24,2.27,4.97.6,1.73,1.24,3.48,2.41,4.89,1.17,1.41,2.97,2.42,4.78,2.17-1.49-1.05-2.34-2.78-3-4.49-.78-2.03-1.38-4.13-1.77-6.27-.22-1.2-.37-2.48.07-3.62.38-.99,1.19-1.78,2.13-2.28.94-.5,2-.73,3.06-.83.13-.52-.34-1.03-.86-1.14Z"/>
      <path class="cls-1" d="M97.86,128.09c-.17-3.12,7.42-16.83,22.48-11.54-10.01-5.72-23.13,2.59-22.48,11.54Z"/>
      <path class="cls-1" d="M63.64,80.24c-.67,1.17-1.19,2.43-1.54,3.46,2.02,1.03,4.29,1.57,6.55,1.54.82,0,1.66-.09,2.45.13,1.26.35,2.19,1.38,3.26,2.13.3.21.62.4.97.49.35.09.75.06,1.09-.05-2.06-1.73-2.68-4.83-4.91-6.35-1.5-1.03-3.44-1.13-5.25-.97-.91.08-1.92.18-2.63-.39Z"/>
      <path class="cls-1" d="M61.14,88.63c-.22.17-.29.47-.33.75-.18,1.07-.31,2.15-.59,3.18,1.86.36,3.77.76,5.32,1.85.84.6,1.54,1.39,2.27,2.12s1.54,1.43,2.51,1.8c.97.36,2.14.34,2.96-.3-.79-.64-1.45-1.44-1.91-2.35-.49-.98-.76-2.06-1.31-3.01-.78-1.36-2.09-2.35-3.52-2.99-1.43-.63-2.99-.94-4.54-1.16-.3-.04-.63-.07-.86.11Z"/>
      <path class="cls-1" d="M66.64,131.59c1.27-.73,2.13-2.01,2.78-3.32.65-1.31,1.14-2.71,1.91-3.95,1.25-2.01,3.24-3.55,5.5-4.26-.15-.45-.65-.68-1.1-.8-2.02-.54-4.17.04-6.11.83-1.97.81-3.84,1.84-5.58,3.07-.29.2-.59.44-.67.78-.07.29.03.59.14.86.89,2.4,1.94,4.75,3.13,6.78Z"/>
      <path class="cls-1" d="M80.05,136.55c.56-1.18.33-2.57.08-3.86-.26.77-.9,1.37-1.59,1.8-.69.43-1.45.74-2.16,1.16-1.65.98-2.94,2.57-3.54,4.39,1.5,1.13,2.86,2.32,4.27,3.44-.06-1.35-.1-2.79.58-3.97.63-1.1,1.82-1.82,2.36-2.96Z"/>
      <path class="cls-1" d="M114.53,152.83c3.95-1.42,7.56-4.08,9.52-7.78-2.91,2.91-6.57,5.03-10.44,6.41-3.88,1.38-7.98,2.06-11.49,2.85,4.19.21,8.47-.06,12.41-1.48Z"/>
      <path class="cls-1" d="M121.18,51.88c1.07-1.32,1.33-3.26.64-4.81-.86-1.93-3.15-3.1-5.21-2.66-2.07.44-3.69,2.44-3.69,4.55,0,2.11,1.62,4.11,3.68,4.55,1.67.35,3.51-.3,4.58-1.62ZM115.77,48.82h0c-.13-.21-.25-.43-.33-.66-.32-1.04.27-2.28,1.29-2.68,1.01-.4,2.3.08,2.78,1.06.49.98.11,2.3-.83,2.86-.93.57-2.28.3-2.92-.58Z"/>
      <path class="cls-1" d="M76.34,146.8s0,0,0,0c0,0,0,.01,0,.02,0,0,0-.01,0-.02Z"/>
      <path class="cls-1" d="M108.55,143.59c3-.77,5.91-2.17,8-4.45,3.9-4.26,3.88-11.78-.53-15.52-4.41-3.74-12.44-1.97-14.31,3.5-.74,2.17-.36,4.91,1.52,6.22,1.89,1.3,5.16.04,5.08-2.25,1.51,1.84.66,4.91-1.36,6.17-2.02,1.26-4.74.95-6.8-.24-5.18-3.01-6.14-10.62-3.33-15.92.07-.12.14-.24.21-.36-3.92,5.14-8.89,9.47-14.54,12.61,5.39,8.38,16.4,12.71,26.06,10.25Z"/>
      <path class="cls-1" d="M85.2,121.23c-1.96-.75-3.67-2.13-4.83-3.88-.14.04-.18.21-.2.36-.25,2.54-.23,5.11.05,7.65,1.57-1.23,3.14-2.46,4.7-3.71.14-.11.29-.25.28-.42Z"/>
      <path class="cls-1" d="M.03,173.26h14.38c.47-.91,1.26-1.72,2.04-2.41,2.97-2.61,6.25-4.85,9.51-7.09,13.57-9.28,27.15-18.56,40.72-27.84.01,0,.02-.02.04-.03-3.94-8.28-7.59-16.69-10.95-25.21-1.16-2.95-2.16-6.68.01-8.99-2.09-2.37-2.36-5.85-1.93-8.97.44-3.13,1.48-6.17,1.64-9.32.16-3.15,3.19-5.29,4.59-8.11.82-1.66,1.07-3.54,1.83-5.23s2.31-3.26,4.15-3.14c-.14-.81-.28-1.62-.42-2.43,2.95-3.58,6.75-6.46,10.99-8.34,2.81-4.28,8.04-6.86,13.15-6.48,1.44-2.18,4.59-2.99,6.92-1.85.17.03.33.06.5.1-.33-1.79.49-3.86,1.92-5.1,1.92-1.67,4.58-2.17,7.11-2.4,11.26-1.01,22.47,2.22,33.08,6.13.73.27,1.5.57,1.97,1.2,1.43,1.93-1.17,4.28-3.35,5.28.03.1.05.21.08.31-.38,1.24-1.35,2.25-2.44,2.98-1.77,1.18-3.86,1.77-5.94,2.2-2.08.44-4.2.74-6.21,1.42-2.01.68-3.95,1.8-5.19,3.53,1.95-1.5,4.43-2.14,6.86-2.54,2.43-.4,4.92-.6,7.25-1.38s4.57-2.27,5.59-4.52c.11-.24.2-.49.26-.74.34,3.14-1.63,6.31-3.86,8.71-5.17,5.56-12.15,9.4-19.61,10.81,2.12,4.67,7.77,6.93,12.88,6.47,4.38-.4,8.42-2.41,12.13-4.83.56-.45,1.12-.9,1.67-1.34.32-.26.66-.53,1.06-.64.47-.14.98-.05,1.41.18.11.06.21.12.31.19,2.63-2.26,5.26-4.52,7.89-6.78.94-.81,1.89-1.63,2.56-2.66,1.45-2.23,1.41-5.08,1.37-7.74-.05-2.66.01-5.53,1.6-7.67,1.59-2.14,5.31-2.81,6.79-.6-.5,3.19-.99,6.37-1.49,9.55,3.46-2.87,6.91-5.75,10.37-8.62V0H.03v173.26Z"/>
      <path class="cls-1" d="M102.03,88.96c-1.67,1.94-3.34,3.88-5,5.81-.18.21-.37.5-.22.73,1.01,1.6,1.17,3.62.81,5.47-.37,1.85-1.22,3.57-2.11,5.24-1.11,2.08-2.31,4.12-3.59,6.1,4.75-2.19,9.03-5.39,12.46-9.32,1.71-1.96,3.4-4.22,5.92-4.89.27-.07.55-.12.81-.05.5.13.82.74.63,1.23,3.69-3.05,7.37-6.1,11.06-9.15.68-.57,1.37-1.14,2.16-1.55.24-.13.49-.24.75-.34,0-.01.01-.02.02-.04-2.36.81-4.72,1.67-7.13,2.13-5.2.99-10.65.1-15.57-1.86-.37-.15-.74.19-1,.48Z"/>
      <path class="cls-1" d="M63.88,106.78c1.28-.12,2.56-.36,3.84-.27,1.2.08,2.36.46,3.51.84-.03-.69-.62-1.19-1.14-1.64-1.48-1.26-2.82-2.76-4.61-3.53-1.58-.68-3.36-.72-5.08-.75-.13,0-.29,0-.37.1-.08.09-.08.23-.07.35.11,1.51.26,3.01.16,4.41,1.14.58,2.49.61,3.77.49Z"/>
      <path class="cls-1" d="M64.67,117.67c.79-.16,1.6-.25,2.38-.44,1.22-.3,2.37-.86,3.44-1.52.53-.33,1.05-.69,1.48-1.14.43-.45.77-1.01.87-1.63-1.67.13-3.36.13-5.03,0-1.12-.09-2.23-.23-3.35-.15-.87.06-1.73.26-2.58.46-.19.04-.39.1-.5.25-.11.15-.11.35-.09.53.09,1.24.43,2.46,1.02,3.65.09.25.19.5.13.91.64-.49,1.43-.75,2.22-.91Z"/>
      <path class="cls-1" d="M173.29,72.07v-13c-.08.08-.16.17-.24.25-17.3,18.05-34.77,36.25-55.5,50.23-1.63,1.1-3.39,2.19-5.29,2.51-.16.14-.31.28-.47.42,2.69-.07,5.39.44,7.82,1.6,7.92,3.79,12.27,13.43,10.63,22.06-1.65,8.62-8.74,15.76-17.16,18.24-14.49,4.27-31.2-.38-41.45-11.46-.42.41-.88.8-1.32,1.18-8.69,7.3-17.38,14.61-26.07,21.91-3.03,2.55-6.09,5.1-9.4,7.25h37.27l-1.14,3.22c-.08.23-.16.46-.23.68-2.95,8.57-4.99,18.25-4.99,23.77,0,.36,0,.71.03,1.07.56,11.03,9.72,19.83,20.88,19.83s20.9-9.38,20.9-20.91c0-5.18-1.81-14.06-4.47-22.24-.24-.74-.49-1.48-.75-2.21l-1.13-3.22h72.07v-72.08h0s3.22,1.13,3.22,1.13c1.57.55,3.19,1.08,4.81,1.56,7.42,2.22,15.01,3.67,19.64,3.67,11.11,0,20.22-8.72,20.86-19.68.02-.41.04-.82.04-1.24,0-11.52-9.38-20.9-20.91-20.9-.27,0-.56,0-.86.02-.08,0-.16,0-.24,0-5.8.25-15.15,2.31-23.34,5.19l-3.22,1.13Z"/>
    </g>
    <g>
      <g>
        <path class="cls-1" d="M448.9,237.72v-16.58h4.17v16.41c0,6.46,2.96,9.37,8.21,9.37s8.25-2.92,8.25-9.37v-16.41h4.04v16.58c0,8.46-4.62,12.91-12.33,12.91s-12.33-4.46-12.33-12.91Z"/>
        <path class="cls-1" d="M495.71,237.35l-5.33,5.41v7.54h-4.17v-29.16h4.17v16.29l15.83-16.29h4.75l-12.45,13.12,13.24,16.04h-4.87l-11.16-12.95Z"/>
        <path class="cls-1" d="M539.77,250.3l-6.29-8.96c-.58.04-1.21.08-1.83.08h-7.21v8.87h-4.17v-29.16h11.37c7.58,0,12.16,3.83,12.16,10.16,0,4.5-2.33,7.75-6.41,9.21l6.91,9.79h-4.54ZM539.65,231.3c0-4.17-2.79-6.54-8.12-6.54h-7.08v13.12h7.08c5.33,0,8.12-2.42,8.12-6.58Z"/>
        <path class="cls-1" d="M573.26,243.01h-15.5l-3.21,7.29h-4.29l13.21-29.16h4.12l13.24,29.16h-4.37l-3.21-7.29ZM571.8,239.68l-6.29-14.29-6.29,14.29h12.58Z"/>
        <path class="cls-1" d="M589.29,221.14h4.17v29.16h-4.17v-29.16Z"/>
        <path class="cls-1" d="M631.4,221.14v29.16h-3.42l-17.49-21.74v21.74h-4.17v-29.16h3.41l17.5,21.74v-21.74h4.17Z"/>
        <path class="cls-1" d="M644.26,221.14h4.17v29.16h-4.17v-29.16Z"/>
        <path class="cls-1" d="M679.87,243.01h-15.5l-3.21,7.29h-4.29l13.21-29.16h4.12l13.25,29.16h-4.37l-3.21-7.29ZM678.41,239.68l-6.29-14.29-6.29,14.29h12.58Z"/>
        <path class="cls-1" d="M720.98,221.14v29.16h-3.42l-17.49-21.74v21.74h-4.17v-29.16h3.41l17.5,21.74v-21.74h4.17Z"/>
        <path class="cls-1" d="M770.33,246.67v3.62h-21.16v-29.16h20.58v3.62h-16.41v8.96h14.62v3.54h-14.62v9.41h16.99Z"/>
        <path class="cls-1" d="M799.19,250.3l-8.75-12.04-8.62,12.04h-4.79l10.95-14.95-10.29-14.2h4.75l8.16,11.21,8.08-11.21h4.54l-10.29,14.08,11.04,15.08h-4.79Z"/>
        <path class="cls-1" d="M809.6,235.72c0-8.54,6.58-14.91,15.54-14.91s15.45,6.33,15.45,14.91-6.58,14.91-15.45,14.91-15.54-6.37-15.54-14.91ZM836.42,235.72c0-6.46-4.83-11.2-11.29-11.2s-11.37,4.75-11.37,11.2,4.83,11.2,11.37,11.2,11.29-4.75,11.29-11.2Z"/>
        <path class="cls-1" d="M856.45,224.77h-10v-3.62h24.12v3.62h-10v25.53h-4.12v-25.53Z"/>
        <path class="cls-1" d="M879.23,221.14h4.17v29.16h-4.17v-29.16Z"/>
        <path class="cls-1" d="M893.89,235.72c0-8.62,6.58-14.91,15.45-14.91,4.5,0,8.41,1.54,11.08,4.54l-2.71,2.62c-2.25-2.37-5-3.46-8.21-3.46-6.58,0-11.46,4.75-11.46,11.2s4.87,11.2,11.46,11.2c3.21,0,5.96-1.12,8.21-3.5l2.71,2.62c-2.67,3-6.58,4.58-11.12,4.58-8.83,0-15.41-6.29-15.41-14.91Z"/>
        <path class="cls-1" d="M964.4,243.01h-15.5l-3.21,7.29h-4.29l13.21-29.16h4.12l13.24,29.16h-4.37l-3.21-7.29ZM962.94,239.68l-6.29-14.29-6.29,14.29h12.58Z"/>
        <path class="cls-1" d="M1005.51,221.14v29.16h-3.42l-17.49-21.74v21.74h-4.17v-29.16h3.41l17.5,21.74v-21.74h4.17Z"/>
        <path class="cls-1" d="M1018.37,221.14h4.17v29.16h-4.17v-29.16Z"/>
        <path class="cls-1" d="M1062.44,250.3l-.04-21.24-10.54,17.7h-1.92l-10.54-17.58v21.12h-4v-29.16h3.41l12.16,20.49,11.99-20.49h3.42l.04,29.16h-4Z"/>
        <path class="cls-1" d="M1097.88,243.01h-15.5l-3.21,7.29h-4.29l13.21-29.16h4.12l13.25,29.16h-4.37l-3.21-7.29ZM1096.42,239.68l-6.29-14.29-6.29,14.29h12.58Z"/>
        <path class="cls-1" d="M1113.91,221.14h4.17v25.53h15.79v3.62h-19.95v-29.16Z"/>
        <path class="cls-1" d="M485.84,271.12l-12.79,29.16h-4.12l-12.83-29.16h4.5l10.5,23.95,10.58-23.95h4.17Z"/>
        <path class="cls-1" d="M514.83,296.65v3.62h-21.16v-29.16h20.58v3.62h-16.41v8.96h14.62v3.54h-14.62v9.41h17Z"/>
        <path class="cls-1" d="M531.48,274.74h-10v-3.62h24.12v3.62h-10v25.53h-4.12v-25.53Z"/>
        <path class="cls-1" d="M575.42,296.65v3.62h-21.16v-29.16h20.58v3.62h-16.41v8.96h14.62v3.54h-14.62v9.41h16.99Z"/>
        <path class="cls-1" d="M605.78,300.27l-6.29-8.96c-.58.04-1.21.08-1.83.08h-7.21v8.87h-4.17v-29.16h11.37c7.58,0,12.16,3.83,12.16,10.16,0,4.5-2.33,7.75-6.41,9.21l6.91,9.79h-4.54ZM605.66,281.28c0-4.17-2.79-6.54-8.12-6.54h-7.08v13.12h7.08c5.33,0,8.12-2.42,8.12-6.58Z"/>
        <path class="cls-1" d="M620.69,271.12h4.17v29.16h-4.17v-29.16Z"/>
        <path class="cls-1" d="M662.8,271.12v29.16h-3.42l-17.49-21.74v21.74h-4.17v-29.16h3.41l17.5,21.74v-21.74h4.17Z"/>
        <path class="cls-1" d="M694.24,292.99h-15.5l-3.21,7.29h-4.29l13.21-29.16h4.12l13.24,29.16h-4.37l-3.21-7.29ZM692.78,289.65l-6.29-14.29-6.29,14.29h12.58Z"/>
        <path class="cls-1" d="M729.76,300.27l-6.29-8.96c-.58.04-1.21.08-1.83.08h-7.21v8.87h-4.17v-29.16h11.37c7.58,0,12.16,3.83,12.16,10.16,0,4.5-2.33,7.75-6.41,9.21l6.91,9.79h-4.54ZM729.64,281.28c0-4.17-2.79-6.54-8.12-6.54h-7.08v13.12h7.08c5.33,0,8.12-2.42,8.12-6.58Z"/>
        <path class="cls-1" d="M755.42,290.19v10.08h-4.13v-10.16l-11.58-18.99h4.46l9.33,15.37,9.37-15.37h4.12l-11.58,19.08Z"/>
        <path class="cls-1" d="M809.23,292.99h-15.5l-3.21,7.29h-4.29l13.21-29.16h4.12l13.25,29.16h-4.37l-3.21-7.29ZM807.77,289.65l-6.29-14.29-6.29,14.29h12.58Z"/>
        <path class="cls-1" d="M822.59,296.94l1.54-3.25c2.17,1.96,5.87,3.37,9.62,3.37,5.04,0,7.21-1.96,7.21-4.5,0-7.12-17.66-2.62-17.66-13.45,0-4.5,3.5-8.33,11.16-8.33,3.41,0,6.96.92,9.37,2.58l-1.38,3.33c-2.54-1.63-5.42-2.37-8-2.37-4.96,0-7.08,2.08-7.08,4.62,0,7.12,17.66,2.67,17.66,13.37,0,4.46-3.58,8.29-11.29,8.29-4.46,0-8.83-1.5-11.16-3.67Z"/>
        <path class="cls-1" d="M852.57,296.94l1.54-3.25c2.17,1.96,5.87,3.37,9.62,3.37,5.04,0,7.2-1.96,7.2-4.5,0-7.12-17.66-2.62-17.66-13.45,0-4.5,3.5-8.33,11.16-8.33,3.42,0,6.96.92,9.37,2.58l-1.38,3.33c-2.54-1.63-5.42-2.37-8-2.37-4.96,0-7.08,2.08-7.08,4.62,0,7.12,17.66,2.67,17.66,13.37,0,4.46-3.58,8.29-11.29,8.29-4.46,0-8.83-1.5-11.17-3.67Z"/>
        <path class="cls-1" d="M882.85,285.7c0-8.54,6.58-14.91,15.54-14.91s15.45,6.33,15.45,14.91-6.58,14.91-15.45,14.91-15.54-6.37-15.54-14.91ZM909.68,285.7c0-6.46-4.83-11.2-11.29-11.2s-11.37,4.75-11.37,11.2,4.83,11.2,11.37,11.2,11.29-4.75,11.29-11.2Z"/>
        <path class="cls-1" d="M921.96,285.7c0-8.62,6.58-14.91,15.45-14.91,4.5,0,8.41,1.54,11.08,4.54l-2.71,2.62c-2.25-2.37-5-3.46-8.21-3.46-6.58,0-11.46,4.75-11.46,11.2s4.87,11.2,11.46,11.2c3.21,0,5.95-1.12,8.21-3.5l2.71,2.62c-2.66,3-6.58,4.58-11.12,4.58-8.83,0-15.41-6.29-15.41-14.91Z"/>
        <path class="cls-1" d="M958.57,271.12h4.17v29.16h-4.17v-29.16Z"/>
        <path class="cls-1" d="M994.18,292.99h-15.5l-3.21,7.29h-4.29l13.21-29.16h4.12l13.25,29.16h-4.37l-3.21-7.29ZM992.72,289.65l-6.29-14.29-6.29,14.29h12.58Z"/>
        <path class="cls-1" d="M1014.54,274.74h-10v-3.62h24.12v3.62h-10v25.53h-4.12v-25.53Z"/>
        <path class="cls-1" d="M1037.32,271.12h4.17v29.16h-4.17v-29.16Z"/>
        <path class="cls-1" d="M1051.98,285.7c0-8.54,6.58-14.91,15.54-14.91s15.45,6.33,15.45,14.91-6.58,14.91-15.45,14.91-15.54-6.37-15.54-14.91ZM1078.8,285.7c0-6.46-4.83-11.2-11.29-11.2s-11.37,4.75-11.37,11.2,4.83,11.2,11.37,11.2,11.29-4.75,11.29-11.2Z"/>
        <path class="cls-1" d="M1118.53,271.12v29.16h-3.41l-17.5-21.74v21.74h-4.17v-29.16h3.42l17.49,21.74v-21.74h4.17Z"/>
      </g>
      <g>
        <path class="cls-1" d="M188.09,262.94c.35.21.78.43,1.14.24.51-.26,1-.54,1.49-.84-.43-.37-1.09-.37-1.6-.14-.38.17-.71.45-1.03.73Z"/>
        <path class="cls-1" d="M182.62,259.15c-.33-.08-.71-.13-.99.06-.27.17-.39.51-.36.83.03.32.19.61.38.86.8,1.03,2.29,1.44,3.5.98.31-.12.64-.34.68-.67.04-.38-.3-.68-.61-.88-.8-.52-1.66-.95-2.59-1.17Z"/>
        <path class="cls-1" d="M190.78,266.31c.03.18.26.25.44.27.8.1,1.6.17,2.4.21.22.01.52-.06.51-.28.14-.38-.22-.84-.62-.8-.87.09-1.86-.26-2.55.28-.1.08-.2.2-.18.33Z"/>
        <path class="cls-1" d="M271.79,281.37c-.23.03-.45.11-.68.07-.2-.03-.38-.15-.58-.2-.2-.05-.46.02-.51.22-.03.13.05.27.16.36.33.26.76.33,1.17.4.24.04.5.07.73-.02.23-.09.4-.37.3-.59-.1-.21-.37-.27-.59-.24Z"/>
        <path class="cls-1" d="M269.95,270.66c-.36-.02-.75-.03-1.05.17-.02.32.4.47.72.5.72.09,1.44.17,2.15.26.3-.02.59-.18.76-.42-.6-.38-1.35-.44-2.06-.48-.17-.01-.35-.02-.52-.03Z"/>
        <path class="cls-1" d="M269.41,265.86c-.21-.13-.47-.15-.72-.17-.31-.02-.64-.04-.94.05-.3.09-.58.32-.65.62.59.38,1.31.53,2,.44.22-.03.45-.1.55-.3.11-.22-.03-.51-.24-.64Z"/>
        <path class="cls-1" d="M266.2,275.34c-.63-.07-1.27-.14-1.9-.11-.18,0-.41.12-.34.28.22.47.7.77,1.2.9.5.13,1.03.12,1.54.1.14,0,.28-.01.39-.08.26-.17.21-.6-.02-.81-.23-.21-.56-.25-.87-.29Z"/>
        <path class="cls-1" d="M264.41,281.22c.61.1,1.23.2,1.84.3.31.05.63.1.93.22.05.02.1.04.16.04.28.01.3-.46.07-.61-.23-.16-.53-.12-.81-.15-.38-.05-.72-.24-1.08-.35-.36-.12-.79-.15-1.08.1.17.09.15.4-.04.45Z"/>
        <path class="cls-1" d="M250.93,274.36c-.38-.14-.37-.36-.45-.43-.4-.18-.82-.32-1.25-.35-.16-.01-.33,0-.48.05-.15.06-.28.19-.31.35-.04.21.11.41.28.53.18.11.39.16.59.24.29.11.56.29.78.52.19.19.36.44.62.51.13.04.27.02.4,0,.19-.02.39-.06.58-.1.13-.03.28-.08.32-.21.02-.09-.02-.18-.06-.26-.23-.39-.59-.69-1.01-.85Z"/>
        <path class="cls-1" d="M276.8,330.07c-1.03-.4-2.03-.89-3.03-1.39-2.25-1.11-4.46-2.29-6.55-3.67-2.39-1.58-4.49-3.72-6.52-5.74-2.06-2.06-4.26-4.08-6.93-5.25-.26.34-.54.8-.3,1.16.07.1.17.18.27.25,1.69,1.23,3.38,2.45,5.06,3.68,1.19.86,2.38,1.73,3.44,2.75,1.06,1.02,1.68,2.17,2.01,3.66.13.85.26,1.69.22,2.53-.13,3.2-.27,6.42-.71,9.59-.4,2.91-1.08,5.8-1.84,8.65-.44,1.63-.98,3.22-1.59,4.78h16.24c.36-2.79.66-5.58.94-8.38.22-2.22.3-4.44.49-6.66.1-1.14.34-2.27.45-3.41.18-1.86.14-1.83-1.67-2.53Z"/>
        <path class="cls-1" d="M277.45,270.72c.21.11.45.23.69.18.32-.07.64-.45.91-.26.39.26.93.28,1.34.04.03-.27-.15-.52-.37-.67-.23-.15-.5-.2-.76-.25-.4-.08-.83-.16-1.21-.02-.25.09-.5.27-.75.2-.19-.06-.35.21-.28.4.07.19.26.3.44.4Z"/>
        <path class="cls-1" d="M280.99,275.49c-.31-.26-.74-.37-1.14-.3-.27.05-.52.17-.79.23-.25.05-.52.05-.77.09-.26.04-.52.15-.66.37-.03.05-.06.1-.06.16,0,.06.02.12,0,.23.93-.01,1.83.5,2.76.39.15-.02.3-.06.42-.14.18-.13.27-.34.35-.54.04-.09.08-.19.05-.29-.02-.08-.08-.14-.15-.2Z"/>
        <path class="cls-1" d="M278.86,280.46c-.14-.02-.29-.02-.43-.02-.39,0-.78,0-1.17,0-.22,0-.49.04-.55.25-.08.27.29.44.56.48.57.09,1.15.18,1.72.28.32.05.65.1.97.05.32-.06.64-.24.76-.54-.48-.13-.96-.27-1.44-.4-.14-.04-.28-.08-.43-.1Z"/>
        <path class="cls-1" d="M276.35,267.06c.29-.08.62-.27.58-.57-.01-.1-.07-.19-.15-.24-.11-.08-.26-.1-.4-.12-.91-.09-1.84.1-2.65.52-.08-.02-.14.09-.11.16.03.08.12.11.2.14.81.29,1.71.32,2.54.1Z"/>
        <path class="cls-1" d="M271.13,276.24c.13.17.36.21.57.24.56.08,1.12.16,1.67.24.08.01.16.02.23,0,.27-.1.13-.54.32-.75-.87-.07-1.75-.13-2.62-.19-.21-.02-.3.3-.17.47Z"/>
        <path class="cls-1" d="M263.21,269.65c-.13.03-.28.17-.18.26.92.52,1.96.84,3.01.91.24.02.52,0,.66-.19.11-.15.14-.42.33-.44-.8-.19-1.61-.38-2.41-.57-.46-.11-.95-.1-1.4.03Z"/>
        <path class="cls-1" d="M314.02,265.78c-.09-.23-.36-.32-.6-.39-1.5-.4-3.05-.6-4.6-.59-.17,0-.37.01-.48.14-.15.16-.07.44.09.58.16.14.39.19.6.24.91.18,1.82.37,2.72.55.62.13,1.29.25,1.87-.02.08-.04.18-.09.27-.04.14-.11.2-.31.13-.48Z"/>
        <path class="cls-1" d="M302.03,264.14c-.49-.06-1.09-.07-1.36.34-.12-.13-.3-.21-.49-.2-.08.2-.14.48.05.6.05.03.11.04.16.05,1.13.19,2.26.32,3.4.4.49.03,1.02.04,1.43-.22-.16-.16-.31-.32-.47-.48-.9-.2-1.81-.36-2.73-.48Z"/>
        <path class="cls-1" d="M304.92,278.97c-.07,0-.15,0-.2.04-.18.12,0,.4.19.51.52.29,1.13.36,1.72.42.51.06,1.01.11,1.52.17.14.02.31.02.4-.08.13-.14.05-.37-.07-.51-.38-.43-1.02-.48-1.6-.49-.65-.02-1.3-.04-1.95-.05Z"/>
        <path class="cls-1" d="M299.51,274.03c.6.12,1.2.22,1.81.31.49.07.97.15,1.46.22.57.09,1.2.16,1.66-.19-.05-.27-.35-.4-.62-.48-1.12-.33-2.29-.47-3.45-.4-.37.02-.84.17-.86.54Z"/>
        <path class="cls-1" d="M293.31,265.1c.69-.05,1.38-.1,2.07-.15.36-.03.78-.09.94-.41-.23-.5-.93-.51-1.47-.44-.81.1-1.62.2-2.43.3-.22.03-.49.12-.49.33.28.41.88.41,1.37.38Z"/>
        <path class="cls-1" d="M301.44,279.39s.05-.06.07-.09c.03-.12-.12-.21-.24-.24-1.36-.37-2.8-.47-4.19-.29-.2.03-.42.07-.54.22-.13.15-.08.45.12.48.87.11,1.74.21,2.61.32.76.09,1.63.15,2.17-.39Z"/>
        <path class="cls-1" d="M298.14,269.78c.34,0,.7,0,.97-.2.27-.21.32-.69.02-.84-.09-.05-.2-.05-.3-.06-.77-.04-1.55-.08-2.32-.12-.46-.02-1-.01-1.28.36.11.35.42.59.77.71.34.12.71.13,1.07.13.36,0,.72.01,1.08.02Z"/>
        <path class="cls-1" d="M287.24,280.51c-.23-.07-.47-.13-.7-.2-.38-.11-.79-.22-1.17-.1-.12.04-.23.1-.31.18-.09.09-.14.21-.14.33,0,.15.1.28.22.37.12.09.26.14.41.18.63.17,1.33.17,1.93-.1.11-.05.21-.11.28-.21.06-.1.06-.22.02-.32-.13-.02-.33-.09-.52-.14Z"/>
        <path class="cls-1" d="M288.95,275.2c-1.08.02-2.15.04-3.23.07-.36,0-.84.14-.82.49.02.3.39.42.69.46.98.13,1.99.18,2.95-.05.25-.06.53-.16.66-.38.13-.23,0-.6-.26-.59Z"/>
        <path class="cls-1" d="M288.77,269.08c-.63.02-1.42.13-1.62.74.11.31.44.49.76.53.32.04.65-.05.96-.13.64-.17,1.31-.37,1.73-.88-.56-.28-1.21-.27-1.83-.25Z"/>
        <path class="cls-1" d="M285.85,266.4c.29-.12.49-.53.26-.75-.13-.13-.34-.12-.53-.11-.45.03-.9.06-1.35.09-.26.02-.52.04-.76.11-.45.14-.83.47-1.03.89.75.4,1.64-.15,2.49-.17.31,0,.64.05.93-.06Z"/>
        <path class="cls-1" d="M311.31,274.61c-.55-.11-1.1-.22-1.65-.33-.23-.07-.5.02-.65.21.57.4,1.2.71,1.86.92.5.16,1.07.26,1.54.03,0-.5-.62-.73-1.1-.83Z"/>
        <path class="cls-1" d="M307.21,270.28c.79.13,1.58.25,2.37.38.1.02.23.03.3-.06.1-.12-.01-.36.13-.44.16-.09.12-.35-.02-.47-.14-.12-.34-.13-.52-.14-.81-.04-1.62-.07-2.43-.11.1.17.08.41-.06.55-.11.11.09.26.25.28Z"/>
        <path class="cls-1" d="M311.8,279.74c-.23.53.24,1.22.81,1.2.22.31.61.55.98.46.12-.03.23-.1.32-.19-.12-.1-.1-.32.03-.39-.63-.5-1.37-.87-2.14-1.08Z"/>
        <path class="cls-1" d="M245.67,268.72c-.57-.21-1.17-.43-1.77-.34-.68.11-1.35.21-2.02.32-.1.02-.21.03-.3.09-.24.17-.15.58.09.75.24.16.56.16.86.14.9-.05,1.81-.09,2.71-.14.2,0,.4-.02.56-.13.16-.11.26-.34.15-.5-.06-.1-.18-.14-.29-.19Z"/>
        <path class="cls-1" d="M198.6,265.12c.59.13,1.2.13,1.79,0,.21-.05.43-.12.57-.28.14-.16.18-.43.03-.59-.1-.1-.25-.12-.39-.14-.42-.05-.86-.08-1.26.07-.4.15-.74.51-.74.93Z"/>
        <path class="cls-1" d="M223.18,257.3c.14-.25.51-.92.62-1.25.53-1.31.23-2.91-.75-4.22-.98-1.31-2.44-2.03-3.81-1.9-1.5.15-2.87,1.04-4.32,1.98-.44.29-.89.58-1.34.85l-1.1.61c-.78.39-1.61.7-2.52.85-.01,0-.02,0-.04,0l-.33.11c0,.31.2,1,.99,2.55.42.81,1.34,1.46,2.76,1.92,2.69.87,5.76.79,8.43-.24.57-.22,1.06-.67,1.39-1.26Z"/>
        <path class="cls-1" d="M214.3,264.82c.84.26,1.69.53,2.53.8.37.12.91.15,1.01-.23.09-.35-.34-.6-.7-.66-.36-.06-.8-.14-.9-.49-.47-.14-.94-.29-1.41-.43-.17-.05-.36-.11-.53-.04-.17.06-.28.31-.15.44.09.09-.09.2-.14.31-.06.15.14.27.29.32Z"/>
        <path class="cls-1" d="M217.57,269.12c.92.27,1.85.54,2.77.81.27.08.67.06.68-.21,0-.09-.05-.18-.1-.26-.7-1-2.15-1.41-3.27-.91-.2.09-.41.31-.27.48.05.06.12.08.19.1Z"/>
        <path class="cls-1" d="M227.36,268.79c-.17-.02-.39-.01-.43.15-.06.41.21.86.61.98.14.05.3.05.44.1.31.11.52.38.78.59.25.2.64.34.89.13-.08-.55-.49-1.04-1.02-1.21-.25-.08-.52-.09-.77-.18-.25-.09-.49-.29-.5-.56Z"/>
        <path class="cls-1" d="M227.41,264.28c-.22-.17-.44-.34-.67-.51-.17.29-.44.53-.76.65.33.28.69.51,1.07.7.22.11.52.18.68,0,.23-.25-.06-.63-.33-.84Z"/>
        <path class="cls-1" d="M209.76,268.37c.19.1.4.1.61.1.67,0,1.33,0,2,0,.58,0,1.22-.02,1.64-.42-.31-.56-1.05-.68-1.69-.73-.83-.06-1.7-.11-2.46.22-.15.07-.31.16-.36.32-.07.2.08.42.26.51Z"/>
        <path class="cls-1" d="M208.08,263.75c.23-.06.48-.14.58-.35.15-.34-.24-.7-.62-.72-.37-.02-.73.15-1.1.17-.33.02-.65-.08-.98-.07-.33.02-.69.21-.72.54.3.41.82.62,1.33.64.51.03,1.01-.1,1.5-.22Z"/>
        <path class="cls-1" d="M203.79,267.65c-.4.05-.84.31-.87.71.92.38,1.97.15,2.94-.08.08-.02.17-.04.23-.1.21-.18.02-.56-.25-.63-.27-.07-.55.03-.83.07-.4.06-.81-.03-1.22.03Z"/>
        <path class="cls-1" d="M234.16,339.14c-1.69-2.46-3.34-4.94-4.59-7.64-2.96-9.11-3.65-19.03-1.86-28.44.13-.67.24-1.43-.17-1.96-.5-.63-1.55-.57-2.17-.05-.62.51-.91,1.32-1.12,2.1-.77,2.98-.69,6.1-.6,9.18-.92-2.92-1.94-6-4.24-8.02-.48-.42-1.04-.8-1.67-.88-.63-.08-1.35.2-1.6.79,5.53,6.77,9.33,14.93,10.96,23.51,0,0-.01.02-.02.02-1.59,2.17-3.06,4.44-4.79,6.49-1.91,2.25-3.93,4.44-6.16,6.36-2.13,1.83-4.47,3.51-6.93,4.84-3.75,2.03-7.77,2.48-11.91,1.02-2.67-.94-5.3-.62-7.61.95-1.62,1.1-3.1,2.42-4.65,3.64h55.55c-.11-1.48-.58-2.95-1.32-4.38-1.39-2.68-3.39-5.04-5.11-7.54Z"/>
        <path class="cls-1" d="M201.82,256.66c-.61-.09-1.22-.19-1.84-.28-.17-.03-.35-.05-.5.02-.15.07-.25.28-.15.42.37.47,1.06.52,1.66.54.8.02,1.61.03,2.41.05-.31-.52-.99-.66-1.59-.75Z"/>
        <path class="cls-1" d="M202.92,250.21c-1.16-.26-2.78.09-3.68.79-.12.1-.25.19-.37.28,1.87.09,3.7.2,5.61.36-.13-.2-.25-.41-.36-.63-.2-.4-.6-.67-1.21-.8Z"/>
        <path class="cls-1" d="M202.3,260.55c.61-.02,1.22-.04,1.84-.05.08-.1.12-.24.1-.37-.05-.45-.61-.61-1.06-.63-.64-.03-1.28,0-1.91.11.49,0,.54.96,1.03.95Z"/>
        <path class="cls-1" d="M238.94,261.76c.1-.03.2-.06.27-.14.16-.18.05-.49-.16-.61-.21-.12-.47-.09-.71-.06-.74.11-1.47.29-2.17.56-.15.06-.31.12-.4.26-.09.13-.07.35.08.41,1.04.03,2.08-.12,3.08-.42Z"/>
        <path class="cls-1" d="M253.46,276.92c-.14.14.08.36.26.43,1.19.49,2.41.89,3.66,1.19.12.03.24.05.35,0,.15-.08.16-.3.08-.44-.08-.14-.23-.23-.38-.31-1.15-.61-2.45-.93-3.75-.93-.08,0-.17,0-.22.06Z"/>
        <path class="cls-1" d="M257.26,267.22c-.33-.04-.71,0-.91.25s-.03.76.29.71c.48-.05.95.11,1.42.24.45.12.9.21,1.36.27.42.05,1-.04,1.04-.46-.79-.33-1.6-.62-2.42-.85-.25-.07-.51-.14-.77-.17Z"/>
        <path class="cls-1" d="M258.93,273.56c-.35-.05-.72-.04-1.07.03.08.43.56.65.97.81.47.17.94.35,1.41.52.32.12.81.14.86-.19-.13-.47-.65-.7-1.11-.86-.35-.12-.7-.25-1.06-.3Z"/>
        <path class="cls-1" d="M254.02,262.55c-.8-.33-1.59-.66-2.39-1-.09-.04-.18-.07-.28-.07-.31,0-.46.44-.31.72.15.28.46.41.75.54.73.31,1.46.61,2.19.92.2.08.43.17.62.06.24-.13.26-.5.1-.72-.16-.22-.42-.34-.68-.45Z"/>
        <path class="cls-1" d="M261.56,265.38c.08-.27-.11-.61-.39-.61-.75-.01-1.5-.14-2.2-.4-.08.19-.22.36-.38.48.38.46.95.71,1.51.89.27.08.55.16.83.12.28-.04.56-.21.64-.48Z"/>
        <path class="cls-1" d="M253.31,271.43c-.37-.34-.78-.62-1.23-.83-.28-.13-.66-.22-.85.02.31.83,1.25,1.37,2.12,1.22.17-.03.09-.3-.04-.41Z"/>
        <path class="cls-1" d="M249.12,264.72c.58,1.09,2.01,1.63,3.17,1.21-.72-.85-1.85-1.34-2.97-1.3-.08,0-.17.02-.21.09Z"/>
        <path class="cls-1" d="M247.07,259.71c-.09-.02-.19-.03-.27-.05-.21-.02-.42-.01-.63,0-.51.05-1.02.1-1.53.16-.35.04-.79.14-.87.48-.06.26.14.53.39.63.25.1.53.08.8.06.75-.06,1.5-.12,2.25-.18.28-.02.46-.35.38-.62-.07-.24-.28-.41-.52-.49Z"/>
        <path class="cls-1" d="M235.36,267.74c-.42-.16-.8-.4-1.19-.62-.39-.21-.81-.4-1.26-.43-.14,0-.3,0-.4.1-.12.11-.14.29-.1.45.06.22.22.39.41.52.19.13.4.21.61.29.65.26,1.3.57,1.99.63.06,0,.13,0,.18-.03.05-.04.05-.11.06-.17.01-.28,0-.63-.3-.74Z"/>
        <path class="cls-1" d="M233.96,272.07c-.24.04-.48.21-.53.45.7.1,1.4.21,2.11.31.2.03.41.06.59.15.12.06.24.14.37.16.13.03.3-.03.34-.16.1.1.21.2.31.29.21-.07.28-.4.11-.55-.86-.2-1.71-.39-2.57-.59-.24-.06-.49-.11-.73-.07Z"/>
        <path class="cls-1" d="M244.01,272.89c-.22-.03-.44.07-.65.13-.94.29-1.97,0-2.95.12-.1.01-.21.03-.27.11-.13.17.06.41.26.51.71.38,1.57.35,2.38.31.62-.03,1.38-.15,1.59-.74.08-.21-.14-.43-.36-.46Z"/>
        <path class="cls-1" d="M293.25,274.15c-.26.05-.53.1-.79.17-.26.07-.53.18-.64.42,1.26.61,2.85.46,3.97-.38-.7-.53-1.68-.39-2.54-.22Z"/>
        <path class="cls-1" d="M240.74,264.71c1.11-.1,2.23-.19,3.34-.29.25-.02.58-.13.56-.38-.02-.24-.33-.31-.57-.31-.77.01-1.54.13-2.31.25-.28.04-.56.08-.84.13-.15.02-.32.05-.43.16-.11.11-.14.32-.01.4.07.05.17.05.26.04Z"/>
        <path class="cls-1" d="M279.4,178.09l1.13-3.21c.26-.73.5-1.47.75-2.21,2.67-8.18,4.47-17.05,4.47-22.24,0-11.36-9.1-20.62-20.39-20.89-.08,0-.15-.01-.23-.01,0,0-.02,0-.02,0-.08,0-.17,0-.25,0-4.03,0-7.79,1.16-10.99,3.14,0-.02,0-.04,0-.06-5.98,3.67-9.99,10.24-10.02,17.74,0,5.65,2.15,15.7,5.22,24.44l1.13,3.22h-.03l.03.08h-72.08v71.99h0s0,.08,0,.08l-3.22-1.13c-8.76-3.07-18.81-5.22-24.44-5.22-11.51,0-20.87,9.35-20.91,20.85,0,11.52,9.38,20.89,20.91,20.89,5.66,0,15.71-2.15,24.44-5.22l3.22-1.13v69.73c.34-2.76,1.59-5.2,3.11-7.48,3.67-5.51,7.48-10.94,11.24-16.39,2.24-3.26,4.5-6.5,6.18-10.11,2.19-4.71,2.91-9.64,2.12-14.72-.63-4.02-2-7.84-4.41-11.18-.89-1.23-1.56-2.66-3.06-3.38-5.94-2.84-11.86-5.73-17.81-8.56-4.98-1.42-9.46-4.8-12.01-9.32-.43-.76-.81-1.57-1.01-2.42-.1-.42-.14-.86-.12-1.3.06.74.28,1.46.62,2.13.49.98,1.2,1.84,1.94,2.65,2.56,2.77,5.68,5.01,9.12,6.55.01-.03.02-.06.03-.09.47-1.08,1.58-2.11.46-3.42-.02-.02,0-.08,0-.11-.42-1.85-.93-3.64-2.18-5.15-.77-.93-.74-2.18-.08-3.24.11-.18.14-.5.05-.7-.48-1.12-.92-2.27-1.56-3.3-.27-.44-.96-.72-1.51-.85-.79-.17-1.62-.21-2.43-.32h0c-.57-.09-1.19.05-1.71.32.56.92,1.34,1.72,1.96,2.61.6.86.27,1.77-.27,2.45-.32.4-1.05.57-1.62.65-.43.06-.9-.2-1.41-.37-.48-.04-.97,0-1.4-.1.01-.1.02-.2.03-.3-.34-.12-.63-.36-.82-.86-.5-1.3.43-4.34,1.64-5.02.17-.09.34-.18.51-.25.02-.04.07-.06.11-.08.27-.13.57-.18.87-.23.59-.09,1.2-.18,1.85-.17,0,0,0,0,.01,0,.06,0,.11,0,.17,0,.1,0,.2,0,.3.01,0,0,0,0,0,0,1.09.06,2.18.18,3.27.17,1.83-.01,3.66-.14,5.6-.22,2.08-.49,4.13-.79,5.99-1.55,1.42-.58,2.54-1.87,3.92-2.61.14-.07.28-.13.42-.19-.36-.15-.62-.32-.72-.52l-.3-.59.37-.56c.46-.69.47-.7,7.67-.06,1.53.13,3.14-.41,4.56-1.52,1.44-1.13,3.73-1.64,5.57-1.22,1.28.29,2.23.98,2.73,2.01.7,1.41,2.08,2.2,3.46,1.97,1.43-.24,2.73-1.08,4.1-1.97,1.61-1.05,3.27-2.13,5.33-2.33,2.18-.22,4.37.83,5.84,2.8,1.48,1.97,1.87,4.36,1.05,6.39-.04.1-.08.21-.14.33.2.14.44.25.73.35,2.82.91,5.71.93,8.56.42,3.5-.62,6.94-1.67,10.45-2.23,1.87-.3,3.96-.34,5.76.17,3.43.98,6.76,2.37,10.07,3.74,3.7,1.53,7.54,2.36,11.51,2.51,4.89.19,9.77-.08,14.62-.88,2.24-.37,4.53-.49,6.8-.72,2.97-.31,5.94-.73,8.92-.9,3.21-.18,6.4.14,9.6.63,4.04.61,7.74,2.1,11.21,4.1,4.85,2.79,8.85,6.63,12.23,11.06,4.16,5.47,7.19,11.58,9.43,18.05,1.45,4.18,2.74,8.42,3.87,12.69.73,2.77,1.32,5.59,1.86,8.41v-136.51h-71.97Z"/>
        <path class="cls-1" d="M327.42,289.61c-.65-.53-1.25-1.12-1.79-1.76-.24-.28-.75.04-.75.42s.29.67.56.92c.65.6,1.29,1.21,1.94,1.81.28.26.75-.14.7-.51-.05-.37-.37-.64-.66-.88Z"/>
        <path class="cls-1" d="M324.16,274.94c-.25.17-.05.55.18.75.76.67,1.71,1.14,2.71,1.34-.03-.75-.8-1.23-1.47-1.57-.3-.15-.6-.31-.91-.46-.16-.08-.36-.16-.51-.06Z"/>
        <path class="cls-1" d="M331.38,286c.2.18.34.42.53.61.19.2.44.36.71.33.27-.03.5-.33.39-.57-.37-.37-.82-.66-1.3-.85-.19-.24-.44-.42-.72-.53-.19.11-.19.39-.07.57.12.18.31.29.47.44Z"/>
        <path class="cls-1" d="M323.45,278.76c-.29.1-.21.53-.04.79.46.71,1.16,1.21,1.84,1.71.49.36,1.11.73,1.67.49.13-.44-.28-.83-.65-1.1-.78-.57-1.56-1.15-2.34-1.72-.14-.11-.32-.22-.49-.16Z"/>
        <path class="cls-1" d="M330.79,291.93c.23.96.91,1.81,1.8,2.25.09-.08.16-.18.2-.3.19.06.42,0,.56-.14-.68-.81-1.57-1.44-2.56-1.81Z"/>
        <path class="cls-1" d="M329.32,322.9c-2.68,2.11-5.39,4.21-8.35,5.92-2.95,1.71-6.44,2.65-9.52,3.54,0,0,0,0,0,0-.08.03-.17.04-.25.07-.88.28-2.03.61-2.45,1.28-2.6,4.25-5,8.62-7.51,12.92-.87,1.48-1.74,2.95-2.62,4.42h30.18c-.21-.38-.42-.77-.63-1.15-1.93-3.43-3.9-6.83-5.83-10.26-1.35-2.4-2.68-4.81-4.02-7.21,4.47-2.06,8.36-5.39,11-9.54Z"/>
        <path class="cls-1" d="M319.15,268.25c.17.05.37.08.52-.03.31-.22.06-.72-.23-.97-.5-.42-1.1-.71-1.73-.86-.08-.02-.16-.03-.23,0-.17.08-.12.33-.03.49.35.66.98,1.16,1.71,1.37Z"/>
        <path class="cls-1" d="M316.54,271.66c-.17.04-.06.31.08.42.6.46,1.27.82,1.97,1.07.4.14.96.18,1.12-.21-.58-.57-1.19-1.16-1.97-1.42-.56-.19-1.15-.19-1.74-.19.12.18.32.3.53.33Z"/>
        <path class="cls-1" d="M338,292.49c.34.15.77-.07,1.12.08-.21-.84-.76-1.56-1.37-2.18-.45-.46-.94-.89-1.46-1.27-.25-.19-.63.11-.63.43,0,.31.21.58.42.82.53.61,1.05,1.22,1.58,1.83.1.12.21.24.35.31Z"/>
        <path class="cls-1" d="M316.07,276.84c.47.53,1.27.52,1.95.72.25.07.49.18.75.16.26-.02.52-.22.5-.48-.03-.28-.35-.41-.62-.49-.8-.22-1.6-.45-2.39-.67-.17-.05-.34.11-.37.28-.02.17.07.34.18.48Z"/>
        <path class="cls-1" d="M328.77,274.43c.31-.33.04-.86-.26-1.2-.65-.75-1.42-1.38-2.28-1.87-.24-.14-.6-.24-.75,0-.04.65.45,1.2.91,1.66.35.35.69.7,1.04,1.05.18.19.37.38.61.47s.55.08.73-.11Z"/>
        <path class="cls-1" d="M318.57,283.42c-.17.02-.34.15-.34.32s.22.32.35.21c0,.24.11.48.29.64.11-.19.4-.04.55.12.2.23.42.48.72.52.3.04.62-.33.42-.56-.41-.48-.92-.87-1.49-1.14-.16-.07-.32-.14-.49-.12Z"/>
        <path class="cls-1" d="M333.11,279.82c-.21-.26-.43-.53-.74-.67-.31-.14-.72-.1-.91.19-.24.36.04.85.37,1.14.53.47,1.22.75,1.93.8.25-.12.11-.49-.06-.71-.2-.25-.4-.5-.59-.74Z"/>
        <path class="cls-1" d="M293.84,279.55c-.51.06-1.01.16-1.51.25-.26.05-.53.11-.76.25-.23.14-.4.39-.38.66.01.16.11.32.24.41.14.09.31.12.3.14.52-.09,1.04-.2,1.54-.34.43-.12.86-.25,1.23-.5.14-.1.28-.23.29-.4,0-.13-.06-.25-.16-.33-.21-.18-.52-.17-.79-.13Z"/>
        <path class="cls-1" d="M341.51,300.99c-.06,0-.12,0-.17.04-.1.08-.07.24-.03.36.27.71.71,1.36,1.28,1.87.24.22.68.11.8-.19-.16-.47-.33-.96-.62-1.36-.3-.4-.76-.72-1.26-.72Z"/>
        <path class="cls-1" d="M339.06,297.64c-.41-.36-.84-.69-1.3-1-.15-.1-.3-.2-.47-.23-.31-.06-.65.15-.75.45.49.36.93.78,1.31,1.25.22.27.44.56.75.7.32.14.77.05.88-.27.12-.33-.16-.67-.43-.9Z"/>
        <path class="cls-1" d="M193.81,257.8c.38-.08.79-.19,1.01-.5.22-.32.02-.89-.36-.84-.52.06-1.03.12-1.55.18-.39.05-.79.09-1.18.03-.22-.03-.42.2-.42.42,0,.23.16.42.34.56.6.44,1.43.3,2.16.15Z"/>
        <path class="cls-1" d="M195.7,269.2c.42.11.84.23,1.25.34.34.09.52-.43.86-.53-.41-.33-.95-.4-1.47-.46-.23-.03-.48-.05-.67.09s-.2.49.03.55Z"/>
        <path class="cls-1" d="M197.07,260.73c.12-.15.09-.44-.1-.49-.97-.26-2.02-.21-2.96.13-.34.13-.25.63-.09.95.07.02.13.04.2.06.82-.08,1.63-.22,2.43-.4.19-.05.4-.1.52-.26Z"/>
      </g>
    </g>
  </g>
  <g>
    <g>
      <g>
        <path class="cls-2" d="M448.72,124.2V50.75h30.88v72.33c0,24.92,11.05,35.23,29.73,35.23s29.73-10.31,29.73-35.23V50.75h30.49v73.45c0,38.6-22.49,59.96-60.42,59.96s-60.42-21.36-60.42-59.96Z"/>
        <path class="cls-2" d="M698.51,159.39v24.78h-103.3V50.75h100.82v24.78h-70.14v28.97h61.94v24.01h-61.94v30.88h72.62Z"/>
        <path class="cls-2" d="M821.89,155.57h-61.94l-11.82,28.59h-31.64l59.46-133.41h30.49l59.65,133.41h-32.4l-11.82-28.59ZM812.17,132.13l-21.16-51.08-21.16,51.08h42.31Z"/>
        <path class="cls-2" d="M998.18,50.75l-57.75,133.41h-30.49l-57.56-133.41h33.35l40.6,95.3,41.17-95.3h30.68Z"/>
        <path class="cls-2" d="M1089.46,155.57h-61.94l-11.82,28.59h-31.64l59.46-133.41h30.49l59.65,133.41h-32.4l-11.82-28.59ZM1079.74,132.13l-21.16-51.08-21.16,51.08h42.31Z"/>
      </g>
      <g>
        <path class="cls-2" d="M279.81,117.76c-.09-1.4-.49-3-1.76-3.59-1.44-.66-3.05.36-4.27,1.37-3.3,2.74-6.36,5.79-9.12,9.07.03,0,.07,0,.1,0,4.71,0,9.13,1.28,12.93,3.5,1.61-3.18,2.36-6.79,2.12-10.35Z"/>
        <g>
          <path class="cls-2" d="M328.76,130.26c.14-1.8-1.82-2.93-3.45-3.71-10.38-4.98-18.61-13.45-26.59-21.74,1.1,1.82,2.53,3.4,3.95,4.98,7.49,8.31,15.48,16.95,26.09,20.48Z"/>
          <path class="cls-2" d="M256.34,30.87c.42.03.97,0,1.1-.41-1.52-.4-3.1-.52-4.67-.58-3.67-.14-7.4.05-10.87,1.25-1.63.57-3.24,1.4-4.3,2.77,5.89-2.46,12.37-3.5,18.73-3.02Z"/>
          <path class="cls-2" d="M245.86,38.2c-.52,1.34.15,3.03,1.45,3.64s3.03.07,3.74-1.18c.71-1.25.28-3.02-.92-3.81-1.43-.94-3.65-.24-4.27,1.35ZM248.55,37.32c.61.11,1.02.84.79,1.42-.23.58-1.03.83-1.55.5-.29-.19-.47-.52-.48-.86-.01-.62.63-1.17,1.24-1.06Z"/>
          <path class="cls-2" d="M235.97,39.85c-.37-.15-.76.12-1.06.39-3.13,2.88-4.83,7.24-4.49,11.48.02.25.11.56.36.59.31.03.42-.4.43-.71.03-3.48,1.23-6.94,3.36-9.7.37-.48.88-.98,1.48-.89.31.05.56.25.8.45,1.7,1.46,2.97,3.43,3.59,5.58.15-1.34-.52-2.64-1.36-3.69s-1.87-1.95-2.65-3.05c-.13-.18-.26-.37-.46-.46Z"/>
          <path class="cls-2" d="M247.72,35.08c-1.86.36-3.37,2.08-3.47,3.97-.11,1.89,1.2,3.77,3.01,4.33,2.11.66,4.63-.63,5.33-2.72s-.51-4.64-2.59-5.4c-.72-.26-1.52-.33-2.28-.18ZM250.92,41.95c-1.47,1.28-3.98,1.08-5.22-.43-1.24-1.5-.96-4.01.58-5.21,1.48-1.15,3.86-.89,5.06.56,1.19,1.45,1,3.84-.41,5.07Z"/>
          <path class="cls-2" d="M289,107.23c2.9,3.54,5.91,6.99,9,10.36.43.47,1.17.95,1.62.5-4.81-4.64-9.15-9.77-12.93-15.27.13,1.68,1.24,3.11,2.31,4.41Z"/>
          <path class="cls-2" d="M296.58,107.98c4.47,5.69,9.55,10.89,15.12,15.51.32.26.65.53,1.06.6.4.07.89-.14.97-.54.11-.53-.48-.92-.97-1.17-3.49-1.74-6.33-4.53-9.05-7.33-2.5-2.58-4.94-5.22-7.32-7.91-.21.23-.01.6.18.84Z"/>
          <path class="cls-2" d="M178.12,65.31c7.93-2.52,16.21-4.2,21.76-4.4.37-.01.73-.02,1.08-.02,14.19,0,25.73,11.54,25.73,25.73,0,.51-.02,1.02-.05,1.52-.79,13.49-12.01,24.22-25.68,24.22h-.01c-5.08,0-13.01-1.48-20.86-3.82-.66-.2-1.31-.4-1.97-.6v65.24h65.3c-2.67-8.43-4.39-17.25-4.39-22.75,0-.03,0-.05,0-.08h0c0-7.21,2.98-13.73,7.77-18.41.32-1.47,1.32-2.79,2.67-3.45-.7-.04-1.4-.07-2.1-.11,2.18-2.52,5.83-3.67,9.05-2.85.42.11.84.12,1.25.07.28-.08.57-.16.86-.23,1.36-.54,2.54-1.84,3.25-3.19,2.53-4.8,1.79-11.13-1.8-15.21-1.35-1.54-3.04-2.75-4.66-4-5.34-4.12-10.29-8.99-13.27-15.04-2.98-6.05-3.77-13.44-.88-19.53,1.07-2.25,2.62-4.34,2.97-6.81.35-2.46-1.22-5.46-3.71-5.4-1.64.04-3.28-.63-4.42-1.81-.74,2.95-.64,6.11.29,9.01-6.9-4.24-9.57-14.15-5.74-21.29.61-1.13,1.36-2.21,1.66-3.45.23-.94.19-1.93.35-2.88.81-4.62,6.04-6.99,10.68-7.69,6.84-1.03,13.96-.14,20.33,2.56.89.38,1.71,1.81.77,2.01,2.55,1.34,4.89,3.09,6.89,5.16-.64.22-1.28.44-1.93.65,3.03,1.93,5.57,4.62,7.31,7.76-.56.04-1.13.07-1.69.11,1.86,1.45,3.36,3.36,4.32,5.51-.88-.04-1.75-.08-2.63-.12,2.55,2.36,5.11,4.73,7.97,6.7-2.36-.81-5.1-.63-7.37.46-3.4,1.63-5.77,4.97-6.9,8.57-1.13,3.6-1.13,7.46-.78,11.21.19,2.04.5,4.12,1.5,5.9-.71-3.81-1.3-7.69-.97-11.56.32-3.86,1.64-7.76,4.32-10.57-1.99,4.22-4.03,8.94-2.64,13.4.15-3.24.32-6.54,1.43-9.58,1.11-3.05,3.34-5.86,6.42-6.86,2.38-.77,4.99-.38,7.31.6,5.08,3.57,9.22,8.48,11.81,14.13,1.17,2.54,2.06,5.27,3.81,7.45,1.09,1.35,2.49,2.47,3.35,3.98.99,1.74,1.15,3.81,1.64,5.75,2.34,9.24,11.62,14.6,18.16,21.53.53.56.76,1.84-.01,1.79-1.23-.33-2.47-.66-3.7-.98,5.01,5.08,9.59,10.58,13.69,16.41-2.86-.08-5.69-1.18-7.85-3.06.79.82,1.62,1.74,1.71,2.87s-1.03,2.38-2.08,1.95c-4.53-1.85-8.82-4.31-12.7-7.29-.16,1.65-2.74,1.37-4.02.32-1.28-1.05-2.99-2.45-4.34-1.49-.97.69-2.31-.06-3.1-.95-.79-.89-1.53-2.01-2.7-2.21-4.06-.71-7.04-4.13-9.4-7.51-1.1,3.63-2.39,7.21-3.86,10.71l-.85-1.71c-2.64,2.34-4.35,5.69-4.71,9.19,2.17.44,3.48,2.16,3.78,4.3,3.12,4.26,4.96,9.5,4.96,15.18,0,.02,0,.05,0,.08h0c0,5.51-1.72,14.33-4.39,22.75h65.28V0h-173.26v65.31Z"/>
          <path class="cls-2" d="M289.72,105.05c4.74,6.28,10.17,12.03,16.17,17.12.42.09.75-.47.62-.88-.13-.41-.51-.68-.87-.93-6.39-4.35-11.35-10.44-16.22-16.44-.21.36.05.8.3,1.13Z"/>
        </g>
      </g>
    </g>
    <g>
      <path class="cls-2" d="M54.24,350.6c-.61-.79-1.47-1.36-2.42-1.65.49.47,1.04.89,1.45,1.44.23.3.43.63.61.96h.84c-.13-.26-.28-.52-.47-.75Z"/>
      <path class="cls-2" d="M89.38,351.36c-.25-.01-.5-.02-.74-.06-.22-.05-.54-.03-.62-.29-.41-.97-.67-2.01-1.27-2.89-.57-.9-1.51-1.51-2.52-1.81.54.5,1.14.96,1.57,1.57.74,1.04,1.09,2.28,1.56,3.45-.02,0-.03.01-.05.02h2.08Z"/>
      <path class="cls-2" d="M69.85,266.34c-.06-.21-.13-.42-.2-.62,0,0,0-.02-.01-.03-.36-.95-.86-1.77-1.33-2.4-.61-.85-1.31-1.65-1.98-2.42-.85-.97-1.72-1.96-2.42-3.07,0,0,0-.01-.01-.02-.1-.15-.19-.31-.28-.47-.06-.1-.11-.21-.17-.31-.06-.12-.13-.24-.19-.37-.59-1.16-1.06-2.45-1.39-3.84-.29-1.24-.48-2.61-.56-4.05-.14-2.35-.07-4.84.24-7.6.17-1.32.43-2.87.99-4.32.21-.53.43-1.07.65-1.59.09-.21.18-.44.27-.65,1.45.46,2.8,1.31,3.9,2.46.1.11.2.22.3.33.07.08.14.15.2.23.13.16.26.32.38.48,0,0,0,0,0,.01.27.37.52.74.77,1.11.22.33.44.66.68.98,1.17,1.68,2.09,3.18,2.83,4.6.9,1.74,1.53,3.38,1.94,5.03.64,2.7.95,5.47.91,8.23-.05,1.77-.21,3.63-1.06,5.25-.05.11-.12.2-.18.3-.05.08-.1.17-.15.25-.09.13-.19.26-.28.39-.02.03-.05.06-.07.09-.23.28-.47.56-.71.82-.19.21-.39.44-.58.66h0c1.33-.58,2.39-1.64,2.92-2.9.59-1.36.75-2.84.83-4.11.13-2.61-.1-5.35-.71-8.39-.51-2.52-1.56-5.07-3.19-7.81-.65-1.1-1.39-2.16-2.1-3.19-.35-.5-.71-1.02-1.06-1.54-.75-1.07-1.68-2-2.68-2.69-1.12-.77-2.3-1.24-3.51-1.39h0c-.03.11-.06.21-.09.31-.04.12-.07.24-.11.36-.15.46-.33.9-.51,1.34-.22.53-.44,1.07-.6,1.62-.46,1.51-.68,3.06-.85,4.92-.33,3.74-.22,7.06.32,10.12.57,2.69,1.58,4.98,2.99,6.81.13.17.27.33.4.5.12.14.23.29.35.43.41.48.82.95,1.24,1.41.87.95,1.76,1.93,2.48,3.03.01.02.03.04.04.06.1.15.2.31.29.47.06.1.12.21.17.31.07.12.14.24.2.37.07.13.14.27.2.41,0,0,0,0,0,0,.18.42.33.86.47,1.29.09.28.18.56.29.84h.01c.03-.71-.08-1.38-.25-2.02,0-.01,0-.03-.01-.04Z"/>
      <path class="cls-2" d="M48.58,350.91c-.6-.77-1.49-1.24-2.42-1.49.63.51,1.31,1,1.76,1.69.06.08.1.16.14.24h.81c-.09-.15-.18-.31-.3-.45Z"/>
      <path class="cls-2" d="M74.41,349.59c-.33-.97-.98-1.84-1.9-2.32.52.92,1.06,1.84,1.36,2.86.12.42.28.82.43,1.23h.79c-.23-.59-.48-1.17-.68-1.76Z"/>
      <path class="cls-2" d="M71.58,262.99c.1.27.19.54.3.8h0s0,0,0,0c.86-.82,1.47-1.93,1.78-3.23.47-1.94.75-4.07.86-6.51.04-1.11,0-2.1-.12-3.01-.14-1.07-.4-2.02-.78-2.9-.04-.1-.09-.2-.13-.3-.07-.18-.14-.35-.22-.52-.07-.15-.14-.3-.21-.44-.11-.21-.22-.42-.34-.62-.43-.75-.9-1.46-1.37-2.16-.17-.25-.34-.5-.5-.75-.32-.47-.63-.96-.93-1.43-.55-.87-1.11-1.76-1.78-2.57h-.01c.08.21.18.4.27.59.06.12.11.25.17.37.11.24.23.47.36.7.04.07.07.14.11.2.54,1,1.14,1.98,1.73,2.92.38.61.77,1.24,1.14,1.87,1.08,1.9,1.67,3.66,1.8,5.36.19,2.24.05,4.65-.42,7.39-.17.94-.34,1.64-.51,2.18-.05.15-.1.3-.16.45-.04.1-.07.19-.11.28-.09.22-.2.43-.31.64-.02.03-.04.07-.06.11-.06-.13-.12-.26-.18-.4-.34-.78-.69-1.58-1.14-2.31-.58-1-1.3-1.93-1.99-2.82-.77-.99-1.56-2.01-2.17-3.13-.17-.29-.31-.61-.44-.91-.18-.4-.37-.82-.61-1.19h-.01c.17,1.75,1.21,3.21,2.21,4.63l.1.14c.94,1.27,1.9,2.58,2.65,4,.06.12.12.23.17.35.03.08.07.15.1.23.21.49.39,1,.57,1.5.05.14.1.28.15.41,0,.02.02.05.03.07Z"/>
      <path class="cls-2" d="M75.17,320.75c-1.47,1.63-2.53,3.6-3.29,5.64-1,2.61-1.38,5.41-1.48,8.19-.14,3.12.28,6.23.63,9.33,1.41-.17,3.01-.07,4.12.93,1.38,1.15,1.77,3.06,1.66,4.78-.3-.33-.6-.67-.92-.98.27.94.72,1.82,1.12,2.71h5c-.7-.21-1.44.06-2.15-.1-.93-.15-1.88-.79-2.03-1.78-.13-.95-.1-1.93-.43-2.85-.52-1.74-1.97-3.12-3.71-3.61.04-1.62.06-3.24-.09-4.85-.11-1.5-.43-2.97-.67-4.45,2.44-1.94,5.19-3.45,7.66-5.35.22.11.42.24.66.29.47-.11.85-.45,1.23-.72.51-.38,1.15-.62,1.5-1.18.57-.73.81-1.66.7-2.58-.41.84-.81,1.68-1.4,2.41-.07-.26-.14-.53-.21-.78-.33.84-.88,1.59-1.69,2.02.21-.65.52-1.27.74-1.92-1.52,1.44-3.21,2.68-4.97,3.82-2.14,1.49-4.59,2.73-6,5.02.05-4.07.9-8.17,2.79-11.8.37-.76.85-1.45,1.24-2.2ZM72.72,342.87c-.3-.01-.59-.03-.89-.04-.03-.6-.14-1.21-.03-1.81.27-.54.64-1.03.94-1.56.01,1.13.02,2.27-.02,3.4ZM72.14,335c.12.7.28,1.4.28,2.11-.04.89-.44,1.72-.93,2.44-.1-.86-.18-1.72-.13-2.58.04-.72.43-1.35.78-1.96Z"/>
      <path class="cls-2" d="M76.72,273.54s-.02-.02-.03-.03c-.1-.12-.22-.23-.33-.34-.02-.02-.03-.03-.05-.04-.11-.1-.23-.2-.36-.29-.02-.01-.04-.02-.06-.04-.27-.19-.55-.35-.88-.47-1.17-.45-2.47-.21-3.52-.01h-.01s.01.01.01.01c.4.37.92.55,1.32.67-.03.08-.07.17-.1.25-.36.9-.74,1.82-.66,2.81.04.74.3,1.45.76,2.07.46.62,1.07,1.08,1.76,1.34.92.34,1.9.49,2.84.63.27.04.56.09.83.13h0s0,0,0,0c.12-1.72.17-3.39-.46-4.9-.2-.48-.55-1.16-1.09-1.77ZM74.8,276c-.19.04-.38,0-.53-.1-.03-.03-.07-.06-.1-.09.01.01.02.03.03.04-.01-.01-.02-.03-.03-.04-.04-.04-.07-.07-.11-.12-.08-.1-.16-.22-.22-.36,0-.01-.01-.02-.02-.04-.01-.02-.02-.04-.03-.07,0-.02-.02-.03-.02-.05,0,.02.02.03.02.05-.11-.3-.17-.67-.11-1.1.03-.28.2-.55.44-.71.14-.09.29-.14.45-.14.08,0,.15.01.23.03h0c.39.09.7.31.86.61.21.47.12,1.08-.24,1.63-.13.22-.37.4-.61.45ZM77.42,279.16c-.25-.06-.51-.13-.75-.19-.39-.1-.79-.2-1.19-.29.03-.02.05-.05.08-.07.31-.27.63-.54.83-.91.03-.06.05-.11.08-.17.02-.04.04-.08.06-.13.19-.45.23-.94.27-1.42.01-.15.03-.31.04-.46.61,1.17.64,2.49.58,3.63Z"/>
      <path class="cls-2" d="M124.72,264.65c0-14.19,11.55-25.74,25.74-25.74,5.51,0,14.36,1.73,22.83,4.42v-65.23h-65.31c.04.11.07.22.1.34,2.62,8.35,4.31,17.04,4.31,22.49h0c0,14.2-11.54,25.74-25.73,25.74s-25.02-10.84-25.71-24.42c-.02-.44-.03-.88-.03-1.33,0-5.44,1.68-14.09,4.29-22.4.04-.14.09-.28.13-.43H.03l-.03,173.1h.03v.16h30.5c-.57-.39-1.09-.85-1.52-1.38-1.03-1.28-1.56-2.91-1.7-4.53-.09-1.19.12-2.38.09-3.57-.04-2.1-.56-4.21-1.65-6.01-.58-.92-1.21-1.81-1.66-2.8-1.05-2.21-1.44-4.67-1.57-7.09-.12-2.47.06-4.95.39-7.4.64-4.67,2.05-9.28,4.43-13.37,2.5-4.31,6.37-7.68,10.65-10.16,4.56-2.62,9.58-4.35,14.68-5.53,2.64-.58,5.31-1.09,8.02-1.28-.82.71-1.81,1.32-2.25,2.36.77-.26,1.56-.55,2.21-1.07.66-.74,1.59-1.13,2.44-1.6,1.24,2.09,2.89,3.9,4.73,5.48-1.25.51-2.52,1.04-3.63,1.82,1.24-.52,2.45-1.1,3.73-1.51.28-.09.51.19.73.32.97.77,2.05,1.39,3.14,1.96-2.49,1.65-4.91,3.55-6.58,6.06.28-.27.53-.57.79-.86,1.74-2.03,3.93-3.62,6.2-5,1.25.59,2.56,1.06,3.9,1.41-1.96,2.09-3.56,4.61-4.18,7.43.16-.34.3-.69.43-1.04.85-2.19,2.16-4.19,3.8-5.88.17-.15.35-.38.61-.32,1.11.14,2.31.22,3.23.93,1.41.98,3.19,1.08,4.84.95.95-.11,1.91.05,2.85-.14,1.04-.21,2.03-.64,2.9-1.25.82-.55,1.53-1.24,2.39-1.73.12,2.21,1.01,4.26,1.5,6.4.51,2.33.81,4.82.14,7.15-.1-.17-.2-.34-.29-.51-.31,1.55-.23,3.18-.81,4.68-.24.68-.64,1.3-1.13,1.83-.09-.37-.16-.73-.25-1.1-.63,1.67-1.73,3.08-2.84,4.45.31-.11.61-.23.91-.34-.04,1.33-.47,2.66-1.32,3.7-.05-.25-.09-.5-.14-.75-.83,1.93-2.13,3.58-3.19,5.38-.41.73-1.13,1.34-1.16,2.23-.17,1.71-.36,3.42-.51,5.13-.26,3.06-.6,6.11-.63,9.18,1.48-.21,2.99-.28,4.48-.09.84.11,1.68.36,2.36.88.5.37.86.89,1.21,1.4-.13.11-.27.23-.41.35,1.45,1.19,2.65,2.67,3.64,4.25-.58.1-1.16.17-1.74.24-.53-1.16-1.37-2.14-2-3.24-.59-1.01-1.59-1.71-2.69-2.05.77.76,1.6,1.51,2.13,2.48.55,1.03,1.25,1.97,1.87,2.95-.65.12-1.31.19-1.97.22h83.15v-65.32c-8.44,2.68-17.29,4.42-22.83,4.42-14.2,0-25.74-11.54-25.74-25.73,0-.02,0-.04,0-.07h0ZM22.81,335.03c.47,0,.93.05,1.38.12.18.28.35.56.54.84,1.35,2.08,1.92,4.62,1.7,7.07-.13,1.24-.1,2.48.1,3.71-1.11.5-2.37.8-3.72.8-4.25,0-7.71-2.81-7.71-6.27s3.46-6.27,7.71-6.27ZM69.06,293.2c2.31-.63,4.64-1.22,7.04-1.42.25.58.54,1.15.88,1.68-1.46.53-2.88,1.17-4.22,1.96-1.32-.58-2.54-1.36-3.7-2.22ZM73.22,295.6c1.3-.69,2.62-1.35,4.02-1.8.5.49,1,.98,1.55,1.42-.65.51-1.28,1.03-1.88,1.61-1.27-.3-2.51-.69-3.69-1.23ZM87.26,298.66c-.76.12-1.54-.05-2.3.06-.98.11-1.99.09-2.96-.11-.77-.16-1.39-.67-2.07-1.03-.76-.41-1.63-.51-2.46-.66.5-.54,1.06-1.03,1.68-1.43,1.87,1.32,4.31,1.88,6.55,1.31.68-.17,1.25-.6,1.81-1.01.37.38.75.78,1.23,1.02.54.28,1.16.35,1.75.44-1.01.59-2.03,1.25-3.22,1.4ZM100.69,253.73c-1.53,1.42-3.41,2.34-5.15,3.47-1.39.9-2.71,1.91-4.09,2.82.07-.29.15-.59.25-.87,1.63-4.53,3.97-8.79,6.75-12.72,1.45-1.94,3.15-3.72,5.18-5.07,2.19-1.46,4.59-2.58,6.88-3.87,0,1.06.04,2.13-.16,3.18-.32,1.8-1.07,3.47-1.61,5.2-.67,2.02-1.25,4.08-2.19,6-1.21,2.5-2.88,4.79-5.04,6.55-1.45,1.18-3.07,2.16-4.44,3.44-1.16,1.06-2.22,2.26-2.94,3.67.8-.71,1.51-1.51,2.29-2.24,1.98-1.9,4.42-3.24,6.43-5.09.11-.13.29-.29.5-.47,1-1.05,1.44-1.67,2.2-2.65,1.25-1.81,2.22-3.82,2.91-5.91.74-2.3,1.47-4.6,2.31-6.87-.53,4.13-1.89,8.18-4.03,11.76-.14.21-.59.89-.96,1.46,0,0,0,.01,0,.01-.04.05-.07.11-.11.16-.24.37-.42.65-.42.65,0,0,0-.02,0-.06-.02.02-.04.05-.05.07,0,0,.02-.01.02-.01,0,0-.01.01-.03.03-.05.06-.08.12-.13.18-.49.6-1.11,1.22-1.69,1.67-.03.02-.07.05-.1.07-.65.66-1.23,1.26-1.3,1.38-1.03.85-2.18,1.53-3.24,2.35-2.25,1.71-4.18,3.89-5.34,6.48-1.1-1.01-2.26-1.98-3.14-3.21-.47-.64-.82-1.36-1.24-2.03.22,1.31.75,2.57,1.6,3.6,1.24,1.52,3,2.67,3.77,4.55.54,1.19-.31,2.39-.24,3.61.1,1.19.39,2.37.41,3.57.05,1.03-.26,2.06.01,3.08.3,1.17.86,2.24,1.31,3.35,0-.83-.12-1.65-.32-2.45-.18-.77-.43-1.54-.34-2.34.02-.33.37-.48.58-.69.28.82.53,1.66.95,2.42.67,1.25.87,2.68.94,4.08-.76.31-1.58.48-2.25.97.77-.06,1.51-.3,2.23-.56-.06.42.21,1.04-.29,1.25-.98.54-2.02,1.01-2.89,1.73,1.07-.41,2.07-.98,3.13-1.41-.09.82-.24,1.64-.46,2.44-.9-.07-1.8-.12-2.69.05.87.12,1.75.19,2.63.26-.13.24-.24.49-.41.71-.49.09-.99.06-1.49.11.47.11.95.17,1.44.24-.26.46-.55.9-.83,1.35-.45-.11-.9-.23-1.36-.3.34.22.71.39,1.07.58-.47.5-.93,1.02-1.45,1.46-.19-.07-.39-.15-.59-.22.08.16.17.32.25.49-1.04.59-2.16,1.16-3.38,1.2-.86.02-1.81-.39-2.15-1.22-.16-.59,0-1.22.11-1.81.09-.32.12-.72.46-.88.53-.31,1.07-.6,1.51-1.02,1.14-1.06,2.22-2.23,2.91-3.65-1.44,1.3-2.81,2.69-4.44,3.76-.19.1-.45.32-.62.08-1.55-1.36-2.63-3.13-4.03-4.63.86,1.98,1.95,3.94,3.64,5.33.04.68-.2,1.34-.32,2-.13.85-.96,1.33-1.7,1.58-2.01.59-4.21.06-5.95-1.04.31-.25.62-.48.92-.72-.44.17-.86.37-1.29.56-.46-.42-.93-.84-1.36-1.29.94-.34,1.91-.54,2.85-.89-1.08.03-2.13.3-3.16.59-.28-.48-.54-.97-.8-1.46,1.6-.12,3.21-.12,4.82-.13-1.62-.37-3.31-.31-4.96-.2-.25-1.06-.31-2.16-.03-3.22,1.23.23,2.43.62,3.67.83-1.11-.59-2.36-.84-3.56-1.19.43-1.14,1.15-2.13,1.95-3.04.77-.89,1.42-1.9,1.71-3.05-.63.94-1.34,1.82-2.17,2.6-1,.93-1.72,2.11-2.28,3.35-3.35-.79-6.83-1.33-10.28-.88,1.05.05,2.09,0,3.14.1,2.38.2,4.75.57,7.08,1.11-.27,1.13-.3,2.32,0,3.45-2.44.33-4.86.8-7.2,1.58-2.01-1.61-3.79-3.54-5.07-5.78-.99-1.75-1.38-3.83-1.06-5.82.35-2.22,1.18-4.4,2.59-6.17.73-.95,1.84-1.55,2.48-2.58.52-.79.71-1.74.72-2.67.04-1.91-.66-3.75-1.55-5.41-.94-1.81-2.15-3.46-3.38-5.09-1.56-2.07-2.49-4.53-3.08-7.03-.69-3.35-.75-6.81-.34-10.2.3-2.39.76-4.79,1.73-7.01.23-.5.39-1.06.79-1.45.59-.16,1.21,0,1.79.12,1.6.45,3.13,1.21,4.36,2.34,1.42,1.32,2.6,2.88,3.66,4.5,1.53,2.36,2.79,4.88,3.81,7.49,1.53,4.12,2.37,8.49,2.59,12.88.06,1.08-.01,2.16.1,3.24.31-.8.48-1.64.67-2.47.95-.1,1.91-.19,2.86-.09.98.1,1.82.68,2.74.99-.57-.61-1.24-1.11-1.9-1.61.4-1.23,1.01-2.36,1.58-3.51,2.01-3.92,4.64-7.57,7.98-10.46.9-.8,1.94-1.42,2.88-2.17,2.15-1.69,4.07-3.65,5.97-5.61.76-.78,1.41-1.67,2.28-2.33.83-.66,1.81-1.09,2.77-1.53.53-.25,1.11-.43,1.69-.32.86.14,1.72.25,2.57.36,0,.8-.77,1.16-1.37,1.51-2.91,1.65-6.02,3.03-8.54,5.28-1.85,1.65-3.38,3.61-4.71,5.69-1.7,2.56-3.2,5.26-4.37,8.11-.74,1.72-1.43,3.49-1.7,5.35,1.99-1.09,3.69-2.61,5.57-3.86,1.44-1,3-1.82,4.37-2.91,1.13-.94,2.14-2.07,2.74-3.43-.78.79-1.44,1.68-2.29,2.39ZM95.79,277.72c-.18-.7-.19-1.43-.42-2.12-.12-.37-.24-.74-.32-1.12.88.77,1.39,2.16.74,3.23Z"/>
      <path class="cls-2" d="M47.23,338.89c-1.27,1.3-2.7,2.45-4.04,3.68-1.46,1.27-2.83,2.63-4.23,3.95.13.22.26.45.39.67,2.07-.78,4.11-1.68,6.27-2.19,2.14-.54,4.42-.45,6.5.29,1.95.64,3.6,2.06,4.59,3.85-.87-.35-1.75-.69-2.7-.75.65.42,1.35.74,1.97,1.2.72.5,1.33,1.12,1.95,1.74h6.04c-.03-.09-.07-.17-.1-.26-.51-1.7-.28-3.48-.12-5.21.3-3.47-1.07-6.85-2.94-9.7-.95-1.55-2.25-2.86-3.1-4.48-.6-1.09-.98-2.29-1.41-3.46-.09.39-.15.8-.23,1.2-.84-1.35-.75-3.02-.6-4.54-.21.38-.41.76-.63,1.14-.33-1.29-.35-2.62-.22-3.94-.15.23-.31.45-.47.68-.15-1.17.1-2.34.37-3.47-.17.02-.34.04-.51.06.11-.74.31-1.46.49-2.18-.45.67-.84,1.41-.89,2.24-.06,1.44-.39,2.91,0,4.34.33,1.18.32,2.45.89,3.55.32,1,.53,2.1,1.27,2.9.69.67.94,1.63,1.44,2.43.9,1.5,2.09,2.79,3.01,4.28,1.28,2.04,2.29,4.31,2.59,6.72-.21.29-.53.45-.83.62-1.62.85-3.45,1.18-5.24,1.46-.47.07-.95.17-1.43.13-.55-.2-.99-.62-1.52-.87-2.09-1.06-4.51-1.44-6.84-1.18-1.96.22-3.81.96-5.64,1.64,2.12-2.16,4.55-3.98,6.67-6.14,2.21-2.35,3.64-5.4,4.08-8.59.4-2.95.11-6.01-.9-8.82-1.47-4.21-4.55-7.86-8.51-9.92,1.93,1.36,3.69,2.98,5.06,4.91,2.84,3.9,4.3,8.88,3.57,13.69-.46,3.09-1.85,6.05-4.03,8.3Z"/>
    </g>
  </g>
</svg>